<?xml version="1.0" encoding="UTF-8" standalone="no"?>
<svg
   xmlns:dc="http://purl.org/dc/elements/1.1/"
   xmlns:cc="http://creativecommons.org/ns#"
   xmlns:rdf="http://www.w3.org/1999/02/22-rdf-syntax-ns#"
   xmlns:svg="http://www.w3.org/2000/svg"
   xmlns="http://www.w3.org/2000/svg"
   xmlns:sodipodi="http://sodipodi.sourceforge.net/DTD/sodipodi-0.dtd"
   xmlns:inkscape="http://www.inkscape.org/namespaces/inkscape"
   contentScriptType="text/ecmascript"
   contentStyleType="text/css"
   enable-background="new 0 0 2048 2048"
   height="8.8000002"
   id="Layer_1"
   preserveAspectRatio="xMidYMid meet"
   version="1.1"
   viewBox="0 0 1920 2048"
   width="12"
   xml:space="preserve"
   zoomAndPan="magnify"
   inkscape:version="0.48.4 r9939"
   sodipodi:docname="descargar.svg"><metadata
     id="metadata9"><rdf:RDF><cc:Work
         rdf:about=""><dc:format>image/svg+xml</dc:format><dc:type
           rdf:resource="http://purl.org/dc/dcmitype/StillImage" /></cc:Work></rdf:RDF></metadata><defs
     id="defs7" /><sodipodi:namedview
     pagecolor="#ffffff"
     bordercolor="#666666"
     borderopacity="1"
     objecttolerance="10"
     gridtolerance="10"
     guidetolerance="10"
     inkscape:pageopacity="0"
     inkscape:pageshadow="2"
     inkscape:window-width="1536"
     inkscape:window-height="803"
     id="namedview5"
     showgrid="false"
     inkscape:zoom="23.972793"
     inkscape:cx="17.412283"
     inkscape:cy="-0.33810258"
     inkscape:window-x="-8"
     inkscape:window-y="-8"
     inkscape:window-maximized="1"
     inkscape:current-layer="Layer_1" /><path
     d="M 671.15625,2.0625 C 554.90543,2.9428937 438.32645,29.601452 335.80589,84.678929 241.07539,135.09686 158.92505,207.06237 92.258692,290.60001 22.90399,377.75235 -25.871566,481.2323 -47.229371,590.62599 c -13.961631,70.28199 -17.918705,142.53075 -12.030733,213.98202 2.084797,6.41464 -7.198075,6.07968 -10.832083,9.16841 -90.234253,43.34822 -170.378643,108.36079 -230.557403,188.25198 -67.19144,88.3528 -112.93706,193.4516 -127.65531,303.859 -17.20144,130.7415 1.63246,267.6946 62.9299,385.1126 45.19037,87.1624 111.00364,162.4672 187.96372,222.9962 80.718702,63.4301 177.49928585,106.5158 279.03628,122.8788 49.34718,8.5533 99.63839,9.7886 149.65625,9.125 519.10394,-0.062 1038.20965,0.125 1557.31255,-0.094 94.5629,-1.1593 189.043,-25.5819 270.1589,-74.518 71.2606,-42.8283 132.8939,-101.5143 180.6251,-169.4318 54.6103,-77.6307 86.417,-170.2816 93.1872,-264.8563 7.677,-97.659 -8.1679,-197.8569 -51.1833,-285.933 -38.4344,-78.9055 -95.4498,-149.0807 -164.5189,-203.0883 -63.1629,-49.31981 -137.7267,-83.32062 -215.7066,-101.3288 37.975,-55.98697 59.1529,-122.70756 60.6806,-190.37423 2.3953,-72.36755 -15.2292,-145.69014 -54.5256,-206.8194 -38.73,-59.90945 -92.959,-109.8955 -157.3424,-140.86887 -73.0085,-34.80793 -157.8401,-42.34138 -236.9063,-26.40625 -60.826,12.41874 -117.2957,42.2646 -163.6563,83.5625 -39.695,-98.36926 -99.9988,-188.44846 -177.6627,-260.78226 C 1088.8565,109.21927 959.6128,40.412371 820.76734,14.752092 771.48918,5.5174147 721.31365,1.4615606 671.15625,2.0625 z M 727.25,556.53125 c 94.71656,0.14828 189.45024,-0.29496 284.1562,0.21875 24.9648,2.14676 45.6766,26.18911 43.6876,51.34375 -1e-4,169 0,338 0,507.00005 109.665,0.1259 219.3428,-0.2513 329,0.1874 21.686,1.1464 40.776,19.0958 42.9062,40.75 3.2098,20.2764 -8.2867,39.5757 -23.1725,52.3918 -168.2384,168.1442 -336.3599,336.5895 -504.67125,504.5458 -19.71604,16.8276 -53.07298,14.7593 -69.92218,-5.2972 -170.51451,-170.6189 -341.28652,-341.0779 -511.64032,-511.7966 -16.37058,-18.8166 -14.79812,-50.6475 4.09375,-67.2812 10.64566,-10.9072 26.31512,-14.8122 41.21875,-13.5 105.27083,-1e-4 210.54167,0 315.8125,0 0.0835,-171.21795 -0.16695,-342.4426 0.125,-513.6563 1.41892,-24.35264 23.94631,-45.43736 48.40625,-44.90625 z"
     id="path3"
     inkscape:connector-curvature="0" /></svg>