<?xml version="1.0" encoding="UTF-8" standalone="no"?>
<svg
   xmlns:dc="http://purl.org/dc/elements/1.1/"
   xmlns:cc="http://creativecommons.org/ns#"
   xmlns:rdf="http://www.w3.org/1999/02/22-rdf-syntax-ns#"
   xmlns:svg="http://www.w3.org/2000/svg"
   xmlns="http://www.w3.org/2000/svg"
   xmlns:sodipodi="http://sodipodi.sourceforge.net/DTD/sodipodi-0.dtd"
   xmlns:inkscape="http://www.inkscape.org/namespaces/inkscape"
   contentScriptType="text/ecmascript"
   contentStyleType="text/css"
   enable-background="new 0 0 2048 2048"
   height="7.7140002"
   id="Layer_1"
   preserveAspectRatio="xMidYMid meet"
   version="1.1"
   viewBox="0 0 1792 2048"
   width="12"
   xml:space="preserve"
   zoomAndPan="magnify"
   inkscape:version="0.48.4 r9939"
   sodipodi:docname="verFicha.svg"><metadata
     id="metadata9"><rdf:RDF><cc:Work
         rdf:about=""><dc:format>image/svg+xml</dc:format><dc:type
           rdf:resource="http://purl.org/dc/dcmitype/StillImage" /><dc:title></dc:title></cc:Work></rdf:RDF></metadata><defs
     id="defs7" /><sodipodi:namedview
     pagecolor="#ffffff"
     bordercolor="#666666"
     borderopacity="1"
     objecttolerance="10"
     gridtolerance="10"
     guidetolerance="10"
     inkscape:pageopacity="0"
     inkscape:pageshadow="2"
     inkscape:window-width="1536"
     inkscape:window-height="803"
     id="namedview5"
     showgrid="false"
     inkscape:zoom="59"
     inkscape:cx="2.6075999"
     inkscape:cy="4.335216"
     inkscape:window-x="-8"
     inkscape:window-y="-8"
     inkscape:window-maximized="1"
     inkscape:current-layer="Layer_1" /><path
     style="fill:#000000"
     inkscape:connector-curvature="0"
     id="path3"
     d="M 2261.3808,1023.9475 C 2081.2317,744.22576 1855.434,535.07197 1584.0145,396.32611 c 72.2987,123.34726 108.4584,256.67694 108.4584,400.12182 0,219.18957 -77.9269,406.75907 -233.7862,562.60257 -155.8645,155.8433 -343.4182,233.8713 -562.68736,233.8713 -219.2692,0 -406.82542,-78.028 -562.69005,-233.8713 C 177.45004,1203.207 99.52572,1015.6375 99.52572,796.44793 c 0,-143.44488 36.1546,-276.77456 108.45049,-400.12182 -271.414285,138.74586 -497.20925,347.89965 -677.35825,627.62139 157.6301,243.0041 355.27232,436.4143 592.91348,580.4435 237.63582,144.0288 495.13043,216.0298 772.4679,216.0298 277.33476,0 534.83206,-72.001 772.47326,-216.0298 237.633,-144.0292 435.2727,-337.4394 592.9082,-580.4435 z M 981.33083,341.26329 c 0,-23.62872 -8.2834,-43.91237 -24.8766,-60.45234 -16.59317,-16.46033 -36.74126,-24.95613 -60.44706,-24.95613 -148.1573,0 -275.27447,53.07164 -381.34093,159.16192 -106.08488,106.03713 -159.12736,233.12782 -159.12736,381.35154 0,23.62872 8.28332,43.85903 24.87653,60.42585 16.59321,16.46046 36.74928,24.95618 60.44966,24.95618 23.70838,0 43.8512,-8.23023 60.44698,-24.95618 16.59321,-16.46047 24.87654,-36.79707 24.87654,-60.42585 0,-101.97511 36.1493,-189.0828 108.45046,-261.34946 72.29858,-72.26681 159.41153,-108.47969 261.34158,-108.47969 23.70837,0 43.85388,-7.96474 60.4471,-24.95619 16.5932,-16.46046 24.8765,-36.77041 24.8765,-60.47884 z M 2488.9464,1023.9475 c 0,40.3546 -11.8409,81.2137 -35.5546,122.6567 -165.94,272.6066 -389.0509,491.026 -669.3589,655.1262 C 1503.714,1965.9632 1207.718,2048 895.99934,2048 584.27817,2048 288.27668,1965.6446 7.9657845,1800.9339 -272.34244,1636.117 -495.45594,1418.0424 -661.39324,1146.6042 c -23.7084,-41.443 -35.5546,-82.3021 -35.5546,-122.6567 0,-40.2486 11.8409,-81.16087 35.5546,-122.60399 C -495.45864,629.85234 -272.34244,411.85735 7.9657845,247.01398 288.27668,82.19711 584.27817,-0.025643 895.99934,-0.025643 c 311.71866,0 607.71466,82.222753 888.03356,247.039623 280.308,164.81687 503.4189,382.83836 669.3589,654.32953 23.7084,41.44312 35.5546,82.35539 35.5546,122.60399 z" /></svg>